# Exported from Wings 3D 1.4.1
mtllib interpcube.mtl
o cube1
#12 vertices, 16 faces
v -1.54839300 -1.54839300 3.00000000
v -1.54839300 1.54839300 3.00000000
v 1.54839300 1.54839300 3.00000000
v 1.54839300 -1.54839300 3.00000000
v -1.00000000 -1.00000000 -1.00000000
v -1.00000000 1.00000000 -1.00000000
v 1.00000000 1.00000000 -1.00000000
v 1.00000000 -1.00000000 -1.00000000
v -1.81161981 1.81161981 9.00000000
v 1.81161981 -1.81161981 9.00000000
v -1.81161981 -1.81161981 9.00000000
v 1.81161981 1.81161981 9.00000000
vn -0.70141178 -0.70141178 -0.12666108
vn -0.69931501 0.69931501 -0.14804405
vn 0.70141178 0.70141178 -0.12666108
vn 0.69931501 -0.69931501 -0.14804405
vn -0.52360309 -0.52360309 -0.67207113
vn -0.52360309 0.52360309 -0.67207113
vn 0.52360309 0.52360309 -0.67207113
vn 0.52360309 -0.52360309 -0.67207113
vn -0.42017954 0.42017954 0.80429989
vn 0.42017954 -0.42017954 0.80429989
vn -0.59402178 -0.59402178 0.54247234
vn 0.59402178 0.59402178 0.54247234
g cube1_default
usemtl default
s 1
f 1//1 5//5 4//4
f 1//1 11//11 9//9 2//2
f 2//2 5//5 1//1
f 2//2 7//7 6//6
f 2//2 9//9 12//12 3//3
f 3//3 7//7 2//2
f 3//3 12//12 10//10 4//4
f 4//4 5//5 8//8
f 4//4 7//7 3//3
f 4//4 10//10 11//11 1//1
f 5//5 7//7 8//8
f 6//6 5//5 2//2
f 6//6 7//7 5//5
f 8//8 7//7 4//4
f 9//9 11//11 10//10
f 10//10 12//12 9//9
