# Exported from Wings 3D 1.4.1
mtllib stream.mtl
o cylinder1
#128 vertices, 114 faces
v 1.00000000 3.6133950e-16 1.00000000
v 0.92387953 -0.38268343 1.00000000
v 0.70710678 -0.70710678 1.00000000
v 0.38268343 -0.92387953 1.00000000
v 6.1232340e-17 -1.00000000 1.00000000
v -0.38268343 -0.92387953 1.00000000
v -0.70710678 -0.70710678 1.00000000
v -0.92387953 -0.38268343 1.00000000
v -1.00000000 2.3887482e-16 1.00000000
v -0.92387953 0.38268343 1.00000000
v -0.70710678 0.70710678 1.00000000
v -0.38268343 0.92387953 1.00000000
v -1.8369702e-16 1.00000000 1.00000000
v 0.38268343 0.92387953 1.00000000
v 0.70710678 0.70710678 1.00000000
v 0.92387953 0.38268343 1.00000000
v 1.00000000 2.3887482e-16 -1.00000000
v 0.92387953 -0.38268343 -1.00000000
v 0.70710678 -0.70710678 -1.00000000
v 0.38268343 -0.92387953 -1.00000000
v 6.1232340e-17 -1.00000000 -1.00000000
v -0.38268343 -0.92387953 -1.00000000
v -0.70710678 -0.70710678 -1.00000000
v -0.92387953 -0.38268343 -1.00000000
v -1.00000000 1.1641014e-16 -1.00000000
v -0.92387953 0.38268343 -1.00000000
v -0.70710678 0.70710678 -1.00000000
v -0.38268343 0.92387953 -1.00000000
v -1.8369702e-16 1.00000000 -1.00000000
v 0.38268343 0.92387953 -1.00000000
v 0.70710678 0.70710678 -1.00000000
v 0.92387953 0.38268343 -1.00000000
v 1.00000000 7.6169200e-18 -3.00000000
v 0.92387953 -0.38268343 -3.00000000
v 0.70710678 -0.70710678 -3.00000000
v 0.38268343 -0.92387953 -3.00000000
v 6.1232340e-17 -1.00000000 -3.00000000
v -0.38268343 -0.92387953 -3.00000000
v -0.70710678 -0.70710678 -3.00000000
v -0.92387953 -0.38268343 -3.00000000
v -1.00000000 -1.1484776e-16 -3.00000000
v -0.92387953 0.38268343 -3.00000000
v -0.70710678 0.70710678 -3.00000000
v -0.38268343 0.92387953 -3.00000000
v -1.8369702e-16 1.00000000 -3.00000000
v 0.38268343 0.92387953 -3.00000000
v 0.70710678 0.70710678 -3.00000000
v 0.92387953 0.38268343 -3.00000000
v 0.92387953 -0.38268343 3.00000000
v 1.00000000 4.8380418e-16 3.00000000
v 0.92387953 0.38268343 3.00000000
v 0.70710678 0.70710678 3.00000000
v 0.38268343 0.92387953 3.00000000
v -1.8369702e-16 1.00000000 3.00000000
v -0.38268343 0.92387953 3.00000000
v -0.70710678 0.70710678 3.00000000
v -0.92387953 0.38268343 3.00000000
v -1.00000000 3.6133950e-16 3.00000000
v -0.92387953 -0.38268343 3.00000000
v -0.70710678 -0.70710678 3.00000000
v -0.38268343 -0.92387953 3.00000000
v 6.1232340e-17 -1.00000000 3.00000000
v 0.38268343 -0.92387953 3.00000000
v 0.70710678 -0.70710678 3.00000000
v 1.00000000 -5.5002065e-16 -5.00000000
v 0.92387953 -0.38268343 -5.00000000
v 0.70710678 -0.70710678 -5.00000000
v 0.38268343 -0.92387953 -5.00000000
v 6.1232340e-17 -1.00000000 -5.00000000
v -0.38268343 -0.92387953 -5.00000000
v -0.70710678 -0.70710678 -5.00000000
v -0.92387953 -0.38268343 -5.00000000
v -1.00000000 -6.7248533e-16 -5.00000000
v -0.92387953 0.38268343 -5.00000000
v -0.70710678 0.70710678 -5.00000000
v -0.38268343 0.92387953 -5.00000000
v -1.8369702e-16 1.00000000 -5.00000000
v 0.38268343 0.92387953 -5.00000000
v 0.70710678 0.70710678 -5.00000000
v 0.92387953 0.38268343 -5.00000000
v 0.92387953 -0.38268343 5.00000000
v 1.00000000 3.1615360e-16 5.00000000
v 0.92387953 0.38268343 5.00000000
v 0.70710678 0.70710678 5.00000000
v 0.38268343 0.92387953 5.00000000
v -1.8369702e-16 1.00000000 5.00000000
v -0.38268343 0.92387953 5.00000000
v -0.70710678 0.70710678 5.00000000
v -0.92387953 0.38268343 5.00000000
v -1.00000000 1.9368892e-16 5.00000000
v -0.92387953 -0.38268343 5.00000000
v -0.70710678 -0.70710678 5.00000000
v -0.38268343 -0.92387953 5.00000000
v 6.1232340e-17 -1.00000000 5.00000000
v 0.38268343 -0.92387953 5.00000000
v 0.70710678 -0.70710678 5.00000000
v 1.00000000 -1.1076582e-15 -7.00000000
v 0.92387953 -0.38268343 -7.00000000
v 0.70710678 -0.70710678 -7.00000000
v 0.38268343 -0.92387953 -7.00000000
v 6.1232340e-17 -1.00000000 -7.00000000
v -0.38268343 -0.92387953 -7.00000000
v -0.70710678 -0.70710678 -7.00000000
v -0.92387953 -0.38268343 -7.00000000
v -1.00000000 -1.2301229e-15 -7.00000000
v -0.92387953 0.38268343 -7.00000000
v -0.70710678 0.70710678 -7.00000000
v -0.38268343 0.92387953 -7.00000000
v -1.8369702e-16 1.00000000 -7.00000000
v 0.38268343 0.92387953 -7.00000000
v 0.70710678 0.70710678 -7.00000000
v 0.92387953 0.38268343 -7.00000000
v 0.92387953 -0.38268343 7.00000000
v 1.00000000 1.4850303e-16 7.00000000
v 0.92387953 0.38268343 7.00000000
v 0.70710678 0.70710678 7.00000000
v 0.38268343 0.92387953 7.00000000
v -1.8369702e-16 1.00000000 7.00000000
v -0.38268343 0.92387953 7.00000000
v -0.70710678 0.70710678 7.00000000
v -0.92387953 0.38268343 7.00000000
v -1.00000000 2.6038346e-17 7.00000000
v -0.92387953 -0.38268343 7.00000000
v -0.70710678 -0.70710678 7.00000000
v -0.38268343 -0.92387953 7.00000000
v 6.1232340e-17 -1.00000000 7.00000000
v 0.38268343 -0.92387953 7.00000000
v 0.70710678 -0.70710678 7.00000000
vn 1.00000000 1.6272120e-16 -5.6663136e-19
vn 0.92387953 -0.38268343 2.4365149e-17
vn 0.70710678 -0.70710678 5.2130085e-17
vn 0.38268343 -0.92387953 6.7995763e-17
vn 0.0000000e+0 -1.00000000 6.7995763e-17
vn -0.38268343 -0.92387953 6.7995763e-17
vn -0.70710678 -0.70710678 5.6663136e-17
vn -0.92387953 -0.38268343 2.8331568e-17
vn -1.00000000 -7.0748349e-18 -5.6663136e-19
vn -0.92387953 0.38268343 -2.6631674e-17
vn -0.70710678 0.70710678 -5.6663136e-17
vn -0.38268343 0.92387953 -7.0262289e-17
vn -1.3442186e-16 1.00000000 -6.8562395e-17
vn 0.38268343 0.92387953 -7.0828920e-17
vn 0.70710678 0.70710678 -5.4396611e-17
vn 0.92387953 0.38268343 -2.4931780e-17
vn 1.00000000 1.4857153e-16 -5.6663136e-19
vn 0.92387953 -0.38268343 3.6264407e-17
vn 0.70710678 -0.70710678 7.2528814e-17
vn 0.38268343 -0.92387953 9.3494175e-17
vn 0.0000000e+0 -1.00000000 9.6327332e-17
vn -0.38268343 -0.92387953 9.3494175e-17
vn -0.70710678 -0.70710678 7.4795340e-17
vn -0.92387953 -0.38268343 3.7397670e-17
vn -1.00000000 -1.4149670e-17 -5.6663136e-19
vn -0.92387953 0.38268343 -3.5697776e-17
vn -0.70710678 0.70710678 -7.7061865e-17
vn -0.38268343 0.92387953 -9.1227649e-17
vn -1.4149670e-16 1.00000000 -8.2161547e-17
vn 0.38268343 0.92387953 -9.0661018e-17
vn 0.70710678 0.70710678 -7.7061865e-17
vn 0.92387953 0.38268343 -3.6831039e-17
vn 1.00000000 1.4857153e-16 5.6663136e-19
vn 0.92387953 -0.38268343 7.7061865e-17
vn 0.70710678 -0.70710678 1.3825805e-16
vn 0.38268343 -0.92387953 1.7848888e-16
vn 0.0000000e+0 -1.00000000 1.9378793e-16
vn -0.38268343 -0.92387953 1.7848888e-16
vn -0.70710678 -0.70710678 1.3825805e-16
vn -0.92387953 -0.38268343 7.6495234e-17
vn -1.00000000 -7.0748349e-18 0.0000000e+0
vn -0.92387953 0.38268343 -7.6495234e-17
vn -0.70710678 0.70710678 -1.4052458e-16
vn -0.38268343 0.92387953 -1.8075540e-16
vn -1.4857153e-16 1.00000000 -1.9322129e-16
vn 0.38268343 0.92387953 -1.8018877e-16
vn 0.70710678 0.70710678 -1.4052458e-16
vn 0.92387953 0.38268343 -7.6495234e-17
vn 0.92387953 -0.38268343 -5.0996823e-18
vn 1.00000000 1.5564637e-16 5.6663136e-19
vn 0.92387953 0.38268343 5.6663136e-18
vn 0.70710678 0.70710678 1.8132204e-17
vn 0.38268343 0.92387953 2.0398729e-17
vn -1.3442186e-16 1.00000000 1.3599153e-17
vn -0.38268343 0.92387953 2.0398729e-17
vn -0.70710678 0.70710678 1.5865678e-17
vn -0.92387953 0.38268343 2.8331568e-18
vn -1.00000000 -7.0748349e-18 -5.6663136e-19
vn -0.92387953 -0.38268343 -5.6663136e-18
vn -0.70710678 -0.70710678 -1.5865678e-17
vn -0.38268343 -0.92387953 -1.8132204e-17
vn 0.0000000e+0 -1.00000000 -1.3599153e-17
vn 0.38268343 -0.92387953 -1.8132204e-17
vn 0.70710678 -0.70710678 -1.5865678e-17
vn 1.00000000 1.6272120e-16 1.1332627e-18
vn 0.92387953 -0.38268343 1.0822659e-16
vn 0.70710678 -0.70710678 1.9718771e-16
vn 0.38268343 -0.92387953 2.6291695e-16
vn 0.0000000e+0 -1.00000000 2.9011526e-16
vn -0.38268343 -0.92387953 2.6291695e-16
vn -0.70710678 -0.70710678 1.9945424e-16
vn -0.92387953 -0.38268343 1.0935985e-16
vn -1.00000000 7.0748349e-18 -1.5709289e-33
vn -0.92387953 0.38268343 -1.0709333e-16
vn -0.70710678 0.70710678 -1.9718771e-16
vn -0.38268343 0.92387953 -2.5611738e-16
vn -1.4857153e-16 1.00000000 -2.7651610e-16
vn 0.38268343 0.92387953 -2.5611738e-16
vn 0.70710678 0.70710678 -1.9718771e-16
vn 0.92387953 0.38268343 -1.0709333e-16
vn 0.92387953 -0.38268343 -3.2297988e-17
vn 1.00000000 1.4149670e-16 1.1332627e-18
vn 0.92387953 0.38268343 3.3431250e-17
vn 0.70710678 0.70710678 7.4795340e-17
vn 0.38268343 0.92387953 1.0539343e-16
vn -1.2734703e-16 1.00000000 1.0992648e-16
vn -0.38268343 0.92387953 1.0426017e-16
vn -0.70710678 0.70710678 7.4795340e-17
vn -0.92387953 0.38268343 3.2864619e-17
vn -1.00000000 -2.8299339e-17 -5.6663136e-19
vn -0.92387953 -0.38268343 -3.5697776e-17
vn -0.70710678 -0.70710678 -7.2528814e-17
vn -0.38268343 -0.92387953 -8.6694598e-17
vn 0.0000000e+0 -1.00000000 -8.2728179e-17
vn 0.38268343 -0.92387953 -8.6694598e-17
vn 0.70710678 -0.70710678 -7.0262289e-17
vn 0.89090915 1.5127284e-16 -0.45418155
vn 0.82309273 -0.34093617 -0.45418155
vn 0.62996790 -0.62996790 -0.45418155
vn 0.34093617 -0.82309273 -0.45418155
vn 6.3030352e-17 -0.89090915 -0.45418155
vn -0.34093617 -0.82309273 -0.45418155
vn -0.62996790 -0.62996790 -0.45418155
vn -0.82309273 -0.34093617 -0.45418155
vn -0.89090915 1.2606070e-17 -0.45418155
vn -0.82309273 0.34093617 -0.45418155
vn -0.62996790 0.62996790 -0.45418155
vn -0.34093617 0.82309273 -0.45418155
vn -7.5636422e-17 0.89090915 -0.45418155
vn 0.34093617 0.82309273 -0.45418155
vn 0.62996790 0.62996790 -0.45418155
vn 0.82309273 0.34093617 -0.45418155
vn 0.82309273 -0.34093617 0.45418155
vn 0.89090915 1.2606070e-16 0.45418155
vn 0.82309273 0.34093617 0.45418155
vn 0.62996790 0.62996790 0.45418155
vn 0.34093617 0.82309273 0.45418155
vn -1.1345463e-16 0.89090915 0.45418155
vn -0.34093617 0.82309273 0.45418155
vn -0.62996790 0.62996790 0.45418155
vn -0.82309273 0.34093617 0.45418155
vn -0.89090915 -3.7818211e-17 0.45418155
vn -0.82309273 -0.34093617 0.45418155
vn -0.62996790 -0.62996790 0.45418155
vn -0.34093617 -0.82309273 0.45418155
vn 0.0000000e+0 -0.89090915 0.45418155
vn 0.34093617 -0.82309273 0.45418155
vn 0.62996790 -0.62996790 0.45418155
g cylinder1_default
usemtl default
s 1
f 1//1 17//17 32//32 16//16
f 1//1 50//50 49//49 2//2
f 2//2 18//18 17//17 1//1
f 2//2 49//49 64//64 3//3
f 3//3 19//19 18//18 2//2
f 3//3 64//64 63//63 4//4
f 4//4 20//20 19//19 3//3
f 4//4 63//63 62//62 5//5
f 5//5 21//21 20//20 4//4
f 5//5 62//62 61//61 6//6
f 6//6 22//22 21//21 5//5
f 6//6 61//61 60//60 7//7
f 7//7 23//23 22//22 6//6
f 7//7 60//60 59//59 8//8
f 8//8 24//24 23//23 7//7
f 8//8 59//59 58//58 9//9
f 9//9 25//25 24//24 8//8
f 9//9 58//58 57//57 10//10
f 10//10 26//26 25//25 9//9
f 10//10 57//57 56//56 11//11
f 11//11 27//27 26//26 10//10
f 11//11 56//56 55//55 12//12
f 12//12 28//28 27//27 11//11
f 12//12 55//55 54//54 13//13
f 13//13 29//29 28//28 12//12
f 13//13 54//54 53//53 14//14
f 14//14 30//30 29//29 13//13
f 14//14 53//53 52//52 15//15
f 15//15 31//31 30//30 14//14
f 15//15 52//52 51//51 16//16
f 16//16 32//32 31//31 15//15
f 16//16 51//51 50//50 1//1
f 17//17 33//33 48//48 32//32
f 18//18 34//34 33//33 17//17
f 19//19 35//35 34//34 18//18
f 20//20 36//36 35//35 19//19
f 21//21 37//37 36//36 20//20
f 22//22 38//38 37//37 21//21
f 23//23 39//39 38//38 22//22
f 24//24 40//40 39//39 23//23
f 25//25 41//41 40//40 24//24
f 26//26 42//42 41//41 25//25
f 27//27 43//43 42//42 26//26
f 28//28 44//44 43//43 27//27
f 29//29 45//45 44//44 28//28
f 30//30 46//46 45//45 29//29
f 31//31 47//47 46//46 30//30
f 32//32 48//48 47//47 31//31
f 33//33 65//65 80//80 48//48
f 34//34 66//66 65//65 33//33
f 35//35 67//67 66//66 34//34
f 36//36 68//68 67//67 35//35
f 37//37 69//69 68//68 36//36
f 38//38 70//70 69//69 37//37
f 39//39 71//71 70//70 38//38
f 40//40 72//72 71//71 39//39
f 41//41 73//73 72//72 40//40
f 42//42 74//74 73//73 41//41
f 43//43 75//75 74//74 42//42
f 44//44 76//76 75//75 43//43
f 45//45 77//77 76//76 44//44
f 46//46 78//78 77//77 45//45
f 47//47 79//79 78//78 46//46
f 48//48 80//80 79//79 47//47
f 49//49 81//81 96//96 64//64
f 50//50 82//82 81//81 49//49
f 51//51 83//83 82//82 50//50
f 52//52 84//84 83//83 51//51
f 53//53 85//85 84//84 52//52
f 54//54 86//86 85//85 53//53
f 55//55 87//87 86//86 54//54
f 56//56 88//88 87//87 55//55
f 57//57 89//89 88//88 56//56
f 58//58 90//90 89//89 57//57
f 59//59 91//91 90//90 58//58
f 60//60 92//92 91//91 59//59
f 61//61 93//93 92//92 60//60
f 62//62 94//94 93//93 61//61
f 63//63 95//95 94//94 62//62
f 64//64 96//96 95//95 63//63
f 65//65 97//97 112//112 80//80
f 66//66 98//98 97//97 65//65
f 67//67 99//99 98//98 66//66
f 68//68 100//100 99//99 67//67
f 69//69 101//101 100//100 68//68
f 70//70 102//102 101//101 69//69
f 71//71 103//103 102//102 70//70
f 72//72 104//104 103//103 71//71
f 73//73 105//105 104//104 72//72
f 74//74 106//106 105//105 73//73
f 75//75 107//107 106//106 74//74
f 76//76 108//108 107//107 75//75
f 77//77 109//109 108//108 76//76
f 78//78 110//110 109//109 77//77
f 79//79 111//111 110//110 78//78
f 80//80 112//112 111//111 79//79
f 81//81 113//113 128//128 96//96
f 82//82 114//114 113//113 81//81
f 83//83 115//115 114//114 82//82
f 84//84 116//116 115//115 83//83
f 85//85 117//117 116//116 84//84
f 86//86 118//118 117//117 85//85
f 87//87 119//119 118//118 86//86
f 88//88 120//120 119//119 87//87
f 89//89 121//121 120//120 88//88
f 90//90 122//122 121//121 89//89
f 91//91 123//123 122//122 90//90
f 92//92 124//124 123//123 91//91
f 93//93 125//125 124//124 92//92
f 94//94 126//126 125//125 93//93
f 95//95 127//127 126//126 94//94
f 96//96 128//128 127//127 95//95
f 98//98 99//99 100//100 101//101 102//102 103//103 104//104 105//105 106//106 107//107 108//108 109//109 110//110 111//111 112//112 97//97
f 114//114 115//115 116//116 117//117 118//118 119//119 120//120 121//121 122//122 123//123 124//124 125//125 126//126 127//127 128//128 113//113
